HIERARCHY
ROOT hip
{
  OFFSET 0 0 0
  CHANNELS 6 Xposition Yposition Zposition Zrotation Yrotation Xrotation
  JOINT abdomen
  {
    OFFSET 0 20.6881 -0.73152
    CHANNELS 3 Zrotation Xrotation Yrotation
    JOINT chest
    {
      OFFSET 0 11.7043 -0.48768
      CHANNELS 3 Zrotation Xrotation Yrotation
      JOINT neck
      {
        OFFSET 0 22.1894 -2.19456
        CHANNELS 3 Zrotation Xrotation Yrotation
        JOINT head
        {
          OFFSET -0.24384 7.07133 1.2192
          CHANNELS 3 Zrotation Xrotation Yrotation
          JOINT leftEye
          {
            OFFSET 4.14528 8.04674 8.04672
            CHANNELS 3 Zrotation Xrotation Yrotation
            End Site
            {
              OFFSET 1 0 0
            }
          }
          JOINT rightEye
          {
            OFFSET -3.6576 8.04674 8.04672
            CHANNELS 3 Zrotation Xrotation Yrotation
            End Site
            {
              OFFSET 1 0 0
            }
          }
        }
      }
      JOINT rCollar
      {
        OFFSET -2.68224 19.2634 -4.8768
        CHANNELS 3 Zrotation Xrotation Yrotation
        JOINT rShldr
        {
          OFFSET -8.77824 -1.95073 1.46304
          CHANNELS 3 Zrotation Xrotation Yrotation
          JOINT rForeArm
          {
            OFFSET -28.1742 -1.7115 0.48768
            CHANNELS 3 Zrotation Xrotation Yrotation
            JOINT rHand
            {
              OFFSET -22.5879 0.773209 7.07136
              CHANNELS 3 Zrotation Xrotation Yrotation
              JOINT rThumb1
              {
                OFFSET -1.2192 -0.487915 3.41376
                CHANNELS 3 Zrotation Xrotation Yrotation
                JOINT rThumb2
                {
                  OFFSET -3.37035 -0.52449 3.41376
                  CHANNELS 3 Zrotation Xrotation Yrotation
                  End Site
                  {
                    OFFSET -1.78271 -1.18214 1.43049
                  }
                }
              }
              JOINT rIndex1
              {
                OFFSET -7.75947 0.938293 5.60832
                CHANNELS 3 Zrotation Xrotation Yrotation
                JOINT rIndex2
                {
                  OFFSET -2.54057 -0.884171 1.56538
                  CHANNELS 3 Zrotation Xrotation Yrotation
                  End Site
                  {
                    OFFSET -1.62519 -0.234802 1.16502
                  }
                }
              }
              JOINT rMid1
              {
                OFFSET -8.24714 1.18213 3.41376
                CHANNELS 3 Zrotation Xrotation Yrotation
                JOINT rMid2
                {
                  OFFSET -3.10165 -0.590103 1.0647
                  CHANNELS 3 Zrotation Xrotation Yrotation
                  End Site
                  {
                    OFFSET -2.48547 -0.328903 0.83742
                  }
                }
              }
              JOINT rRing1
              {
                OFFSET -8.82822 0.546677 1.51678
                CHANNELS 3 Zrotation Xrotation Yrotation
                JOINT rRing2
                {
                  OFFSET -2.60934 -0.819778 -0.0198488
                  CHANNELS 3 Zrotation Xrotation Yrotation
                  End Site
                  {
                    OFFSET -2.33842 -0.294052 0.168128
                  }
                }
              }
              JOINT rPinky1
              {
                OFFSET -8.27202 -0.0477905 -0.4584
                CHANNELS 3 Zrotation Xrotation Yrotation
                JOINT rPinky2
                {
                  OFFSET -1.82734 -0.647385 -0.700984
                  CHANNELS 3 Zrotation Xrotation Yrotation
                  End Site
                  {
                    OFFSET -1.69225 -0.51767 -0.607171
                  }
                }
              }
            }
          }
        }
      }
      JOINT lCollar
      {
        OFFSET 2.68224 19.2634 -4.8768
        CHANNELS 3 Zrotation Xrotation Yrotation
        JOINT lShldr
        {
          OFFSET 8.77824 -1.95073 1.46304
          CHANNELS 3 Zrotation Xrotation Yrotation
          JOINT lForeArm
          {
            OFFSET 28.1742 -1.7115 0.48768
            CHANNELS 3 Zrotation Xrotation Yrotation
            JOINT lHand
            {
              OFFSET 22.5879 0.773209 7.07136
              CHANNELS 3 Zrotation Xrotation Yrotation
              JOINT lThumb1
              {
                OFFSET 1.2192 -0.487915 3.41376
                CHANNELS 3 Zrotation Xrotation Yrotation
                JOINT lThumb2
                {
                  OFFSET 3.37035 -0.52449 3.41376
                  CHANNELS 3 Zrotation Xrotation Yrotation
                  End Site
                  {
                    OFFSET 1.78271 -1.18214 1.43049
                  }
                }
              }
              JOINT lIndex1
              {
                OFFSET 7.75947 0.938293 5.60832
                CHANNELS 3 Zrotation Xrotation Yrotation
                JOINT lIndex2
                {
                  OFFSET 2.54057 -0.884171 1.56538
                  CHANNELS 3 Zrotation Xrotation Yrotation
                  End Site
                  {
                    OFFSET 1.62519 -0.234802 1.16502
                  }
                }
              }
              JOINT lMid1
              {
                OFFSET 8.24714 1.18213 3.41376
                CHANNELS 3 Zrotation Xrotation Yrotation
                JOINT lMid2
                {
                  OFFSET 3.10165 -0.590103 1.0647
                  CHANNELS 3 Zrotation Xrotation Yrotation
                  End Site
                  {
                    OFFSET 2.48547 -0.328903 0.83742
                  }
                }
              }
              JOINT lRing1
              {
                OFFSET 8.82822 0.546677 1.51678
                CHANNELS 3 Zrotation Xrotation Yrotation
                JOINT lRing2
                {
                  OFFSET 2.60934 -0.819778 -0.0198488
                  CHANNELS 3 Zrotation Xrotation Yrotation
                  End Site
                  {
                    OFFSET 2.33842 -0.294052 0.168128
                  }
                }
              }
              JOINT lPinky1
              {
                OFFSET 8.27202 -0.0477905 -0.4584
                CHANNELS 3 Zrotation Xrotation Yrotation
                JOINT lPinky2
                {
                  OFFSET 1.82734 -0.647385 -0.700984
                  CHANNELS 3 Zrotation Xrotation Yrotation
                  End Site
                  {
                    OFFSET 1.69225 -0.51767 -0.607171
                  }
                }
              }
            }
          }
        }
      }
    }
  }
  JOINT rButtock
  {
    OFFSET -8.77824 4.35084 1.2192
    CHANNELS 3 Zrotation Xrotation Yrotation
    JOINT rThigh
    {
      OFFSET 0 -1.70687 -2.19456
      CHANNELS 3 Zrotation Xrotation Yrotation
      JOINT rShin
      {
        OFFSET 0 -36.8199 0.73152
        CHANNELS 3 Zrotation Xrotation Yrotation
        JOINT rFoot
        {
          OFFSET 0.73152 -45.1104 -5.12064
          CHANNELS 3 Zrotation Xrotation Yrotation
          End Site
          {
            OFFSET -1.1221 -3.69964 12.103
          }
        }
      }
    }
  }
  JOINT lButtock
  {
    OFFSET 8.77824 4.35084 1.2192
    CHANNELS 3 Zrotation Xrotation Yrotation
    JOINT lThigh
    {
      OFFSET 0 -1.70687 -2.19456
      CHANNELS 3 Zrotation Xrotation Yrotation
      JOINT lShin
      {
        OFFSET 0 -36.8199 0.73152
        CHANNELS 3 Zrotation Xrotation Yrotation
        JOINT lFoot
        {
          OFFSET -0.73152 -45.1104 -5.12064
          CHANNELS 3 Zrotation Xrotation Yrotation
          End Site
          {
            OFFSET 1.1221 -3.69964 12.103
          }
        }
      }
    }
  }
}
MOTION
Frames:	4
Frame Time:	0.03333
0.05822341397124479 35.44396896183887 0.08856558220388762 -3.0084056854248047 6.403772830963135 4.862771034240723 -2.366490364074707 14.677083969116211 3.833873748779297 2.713501453399658 -9.691749572753906 1.2208161354064941 -5.022347450256348 15.527532577514648 -3.446139097213745 9.104877471923828 -26.061132431030273 -5.027629375457764 0.0008484431891702116 -0.036520108580589294 -0.036798618733882904 -0.03482017293572426 0.026327915489673615 0.02744121290743351 0.012723024003207684 -0.00690660672262311 0.019392866641283035 46.78703308105469 36.21981430053711 17.162155151367188 -28.102964401245117 -32.02848815917969 62.56707000732422 -1.5950592756271362 -10.918991088867188 -1.5413997173309326 0.02061336487531662 -0.0050951167941093445 0.03550635278224945 0.0070304651744663715 0.008300249464809895 0.015433795750141144 0.027588894590735435 0.0006891379016451538 -0.007093427237123251 7.684580326080322 5.519742965698242 0.39420396089553833 -0.02603304386138916 -0.026014437898993492 0.014887667261064053 2.9031355381011963 0.9871313571929932 0.1080106645822525 -0.02339741215109825 0.003356739180162549 0.010875338688492775 10.282671928405762 0.7274577617645264 0.019933877512812614 -0.02992977760732174 0.003411288373172283 -0.03904709592461586 2.2265379428863525 -0.7228595018386841 -0.18540528416633606 -0.0021940856240689754 -0.03226374089717865 -0.009829879738390446 -52.351192474365234 39.181785583496094 -29.8847599029541 27.4939022064209 -30.15526580810547 -58.22407913208008 1.8916263580322266 -13.142145156860352 1.833046317100525 -0.06710721552371979 -0.0008277474553324282 -0.01826293207705021 -0.02956850826740265 0.00210260390304029 0.025315960869193077 -0.008994811214506626 -0.001994245918467641 -0.002480462659150362 -7.730050086975098 5.479823112487793 -0.3930215537548065 0.0138676343485713 0.022167127579450607 -0.01535629853606224 -2.9136359691619873 0.9764827489852905 -0.10008623450994492 0.007252174895256758 0.004298801068216562 -0.009138458408415318 -10.26134967803955 0.6999178528785706 -0.07543132454156876 -0.02669593319296837 -0.005889019928872585 0.004531426355242729 -2.1899821758270264 -0.7440982460975647 0.2093520313501358 -0.014077157713472843 -0.016272258013486862 0.00944468006491661 -27.70524024963379 -38.59282302856445 -23.272171020507812 -1.729406714439392 64.98112487792969 2.7776248455047607 -4.608586311340332 -10.724056243896484 -10.058588981628418 0.011905022896826267 -0.030027488246560097 0.017620669677853584 33.47404479980469 -37.64590072631836 26.455358505249023 1.7696294784545898 65.7708511352539 -2.956202745437622 5.068868160247803 -10.686553955078125 13.789252281188965
0.16847045785977263 35.4194998091373 0.25630295532643427 -2.9904606342315674 6.010994911193848 4.8861870765686035 -2.403475046157837 14.626914024353027 3.8813154697418213 2.6731226444244385 -9.674959182739258 1.2277134656906128 -5.001702308654785 15.491382598876953 -3.362051248550415 9.114707946777344 -25.978214263916016 -4.908048629760742 -0.012398789636790752 -0.08294138312339783 -0.08537543565034866 -0.08477064967155457 0.06126970052719116 0.07843537628650665 0.04841014742851257 -0.021043987944722176 0.06308955699205399 46.78472900390625 36.30430603027344 16.854290008544922 -28.103361129760742 -32.03286361694336 62.60732650756836 -1.6235758066177368 -10.760564804077148 -1.545958161354065 0.03633399307727814 0.0006266768323257565 0.07341980189085007 0.03075140342116356 0.009868481196463108 0.0015988214872777462 0.06194421648979187 0.004471581429243088 -0.014245100319385529 7.649533271789551 5.557272434234619 0.3679617643356323 -0.04652625694870949 -0.007695519831031561 0.013339521363377571 2.8796708583831787 1.0004223585128784 0.13240253925323486 -0.06432114541530609 0.04093373566865921 0.017364272847771645 10.310237884521484 0.7004866600036621 0.007675759959965944 -0.05997911095619202 -0.0051484014838933945 -0.06207624450325966 2.2310383319854736 -0.6910300850868225 -0.1795233190059662 -0.023922011256217957 -0.06700826436281204 0.0034812085796147585 -52.428627014160156 39.11193084716797 -29.80620574951172 27.44786834716797 -30.003482818603516 -57.96088790893555 1.8600764274597168 -12.51402473449707 1.7669013738632202 -0.1394660323858261 -1.972186510101892e-05 -0.035260673612356186 -0.0746963620185852 0.019396157935261726 0.06441762298345566 -0.016687143594026566 0.0003619758936110884 0.0019031439442187548 -7.712416172027588 5.507209777832031 -0.38044750690460205 0.02417728677392006 0.0430523045361042 -0.02834104746580124 -2.8974263668060303 0.9678604602813721 -0.10489729046821594 0.0005916410009376705 0.006588209420442581 -0.010586310178041458 -10.246570587158203 0.664889931678772 -0.09717677533626556 -0.037588004022836685 -0.011550800874829292 -0.0030217489693313837 -2.161343812942505 -0.7312508225440979 0.22168324887752533 -0.03634259104728699 -0.031905725598335266 0.027393868193030357 -27.827943801879883 -38.599910736083984 -23.386445999145508 -1.8167437314987183 65.15298461914062 2.8723294734954834 -4.570948123931885 -10.995720863342285 -9.906210899353027 0.025776462629437447 -0.05192381143569946 0.029174644500017166 33.628780364990234 -37.65361404418945 26.518003463745117 1.800628423690796 65.73866271972656 -3.006845235824585 5.054319381713867 -10.75965404510498 13.756742477416992
0.5993446173569761 35.57387574475793 0.7936993043761286 4.4672017097473145 10.905987739562988 8.746079444885254 -6.098219394683838 14.956926345825195 -6.218759059906006 4.760005950927734 -9.867262840270996 -1.109262228012085 -4.883850574493408 13.940964698791504 -1.6487302780151367 7.604742527008057 -29.592021942138672 -2.8300158977508545 0.2063271552324295 -0.15248419344425201 -0.3415905833244324 -0.260565847158432 -0.08334531635046005 -0.13440783321857452 -0.058755263686180115 -0.0960330069065094 0.30483829975128174 53.81947708129883 32.32437515258789 -4.375823974609375 -27.933517456054688 -29.204483032226562 64.5158462524414 0.21078874170780182 4.243289947509766 0.3565070927143097 0.03570184484124184 0.20731961727142334 0.03667505830526352 0.046860549598932266 -0.14507733285427094 0.12327916920185089 0.19962844252586365 0.054473210126161575 0.13510598242282867 7.442409992218018 5.4410014152526855 0.27942463755607605 -0.01565895788371563 -0.21682818233966827 0.05469458922743797 2.9577085971832275 0.8653469681739807 0.21738594770431519 0.011476636864244938 0.26063212752342224 0.0799044743180275 10.226594924926758 0.6091734170913696 0.36818522214889526 0.0719270333647728 -0.24731001257896423 -0.06258965283632278 2.0937912464141846 -0.6514626145362854 0.03400398790836334 -0.2477448433637619 -0.21083155274391174 0.07204166054725647 -29.086164474487305 35.39356994628906 -56.68764877319336 28.36517906188965 -38.151039123535156 -81.37248229980469 0.06549441069364548 -24.813119888305664 3.789395570755005 -0.32599547505378723 0.005077049136161804 -0.13475120067596436 -0.15170365571975708 0.24969962239265442 0.22937186062335968 -0.2998627722263336 0.05653618648648262 0.051826078444719315 -7.605497360229492 5.421130657196045 -0.24893978238105774 -0.21319416165351868 0.3245186507701874 -0.18468128144741058 -2.9002487659454346 0.8065730929374695 0.005635341629385948 0.26469290256500244 0.1945304125547409 0.11375965178012848 -9.993912696838379 0.5416348576545715 -0.17435498535633087 -0.016322454437613487 -0.008584819734096527 0.0419376902282238 -2.255310297012329 -0.9054431319236755 0.20222125947475433 -0.10784012079238892 -0.17480303347110748 -0.12735161185264587 -51.428672790527344 -66.1414794921875 -54.36683654785156 -5.218279838562012 77.66141510009766 5.578617572784424 -6.1944580078125 -7.556882381439209 -16.824981689453125 0.019730431959033012 -0.3441898226737976 0.1710498183965683 10.133407592773438 -6.518980979919434 5.1886491775512695 -0.012703920714557171 48.84364318847656 -2.675995349884033 7.623856544494629 -6.278415203094482 27.317556381225586
0.16162180583465968 36.06909178034053 1.792376801251718 6.313662528991699 7.758347511291504 9.895464897155762 -2.9532949924468994 10.88023853302002 -9.118335723876953 4.433905124664307 -10.159131050109863 -1.6480743885040283 -4.6099324226379395 13.71639347076416 -1.4171215295791626 7.688720703125 -30.311452865600586 -1.6087151765823364 -0.011105291545391083 -0.05574919283390045 -0.26586830615997314 -0.20663286745548248 -0.04421281814575195 0.09268471598625183 -0.10078436136245728 -0.31525129079818726 0.1710054725408554 55.76003646850586 28.812782287597656 -9.857131958007812 -28.577375411987305 -27.58842658996582 65.22615051269531 0.12824636697769165 6.25274133682251 1.0156835317611694 0.23666441440582275 0.1618095338344574 0.09118877351284027 0.1467887908220291 0.06861979514360428 0.34244561195373535 -0.19883041083812714 0.1947466880083084 -0.37079423666000366 7.437975883483887 5.612614631652832 0.7491189241409302 -0.20782478153705597 0.0861964300274849 0.04493904858827591 3.1367993354797363 0.8505917191505432 0.33644676208496094 -0.44423794746398926 0.2499879002571106 0.34500011801719666 10.052173614501953 0.6661310791969299 0.2377822995185852 -0.2752116322517395 0.11643172055482864 -0.5321673154830933 2.3124337196350098 -0.5026718378067017 0.07498334348201752 -0.227838933467865 0.07620782405138016 -0.23747451603412628 -32.53282928466797 27.69046974182129 -54.058189392089844 28.454084396362305 -39.364994049072266 -82.46281433105469 0.264493465423584 -27.903095245361328 3.505347967147827 -0.3973327577114105 -0.007372635882347822 -0.4882160723209381 0.250690221786499 0.0025517307221889496 0.246378093957901 -0.572929859161377 -0.4511956572532654 -0.13180223107337952 -7.432812213897705 5.143576622009277 -0.3499448597431183 -0.1440759152173996 0.05288362875580788 -0.24034027755260468 -2.6117825508117676 0.9465005397796631 0.1505468487739563 0.19999538362026215 -0.031679317355155945 -0.06751011312007904 -10.123357772827148 0.8956566452980042 -0.3277752101421356 -0.5257124304771423 -0.39874035120010376 0.17521558701992035 -1.9364069700241089 -1.0578868389129639 0.30422964692115784 -0.1734437346458435 0.1386028230190277 -0.26523280143737793 -32.286903381347656 -67.64313507080078 -35.997276306152344 -1.3749092817306519 74.2202377319336 2.467113733291626 -4.190313339233398 -10.551063537597656 -13.000661849975586 -0.03322998434305191 -0.20470952987670898 0.12027562409639359 9.874991416931152 -12.508892059326172 7.12468957901001 2.2430193424224854 67.99859619140625 -4.287032127380371 3.9892349243164062 -5.598740100860596 16.818790435791016
